# xmcd
#
# Track frame offsets:
#	150
#	14170
#	33067
#	46117
#	69602
#	82535
#	98022
#	113150
#	134810
#	150227
#
# Disc length: 2268 seconds
#
# Revision: 1
# Processed by: cddbd v1.5.1PL0 Copyright (c) Steve Scherf et al.
# Submitted via: audiograbber 1.83.01
#
DISCID=7008da0a
DTITLE=Toad the Wet Sprocket - Bread and Circus
DYEAR=1989
DGENRE=Rock
TTITLE0=Way Away
TTITLE1=Scenes From a Vinyl Recliner
TTITLE2=Unquiet
TTITLE3=Know Me
TTITLE4=When We Recovered
TTITLE5=One Wind Blows
TTITLE6=Pale Blues
TTITLE7=Always Changing Probably
TTITLE8=One Little Girl
TTITLE9=Covered in Roses
EXTD=R.E.M. clones
EXTT0=
EXTT1=
EXTT2=
EXTT3=
EXTT4=
EXTT5=
EXTT6=
EXTT7=
EXTT8=
EXTT9=
PLAYORDER=
